# xmcd
#
# Track frame offsets:
#	150
#	6363
#	14731
#	31889
#	41055
#	48936
#	60402
#	70300
#	81459
#	95073
#	107569
#	117920
#	126054
#	136717
#
# Disc length: 1944 seconds
#
# Revision: 1
# Processed by: cddbd v1.5.1PL0 Copyright (c) Steve Scherf et al.
# Submitted via: EasyCDDAExtractor 7.0.6.1
#
DISCID=bc07960e
DTITLE=Lampkins Family - No Speed Limits Ahead
DYEAR=2004
DGENRE=Bluegrass
TTITLE0=Train 45
TTITLE1=Shady Grove
TTITLE2=Go Rest High
TTITLE3=Sitting on Top of the World
TTITLE4=End of Forever
TTITLE5=Foggy Mountain Special
TTITLE6=Cold Wind
TTITLE7=Sincerely
TTITLE8=Nellie Cane
TTITLE9=Lonesome Pine
TTITLE10=High Lonesome Sound
TTITLE11=Jumpin Tracks
TTITLE12=I'm Walkin
TTITLE13=Rambling
EXTD=
EXTT0=
EXTT1=
EXTT2=
EXTT3=
EXTT4=
EXTT5=
EXTT6=
EXTT7=
EXTT8=
EXTT9=
EXTT10=
EXTT11=
EXTT12=
EXTT13=
PLAYORDER=
